<?xml version="1.0" encoding="utf-8"?>
<!-- Generator: Adobe Illustrator 16.0.0, SVG Export Plug-In . SVG Version: 6.00 Build 0)  -->
<!DOCTYPE svg PUBLIC "-//W3C//DTD SVG 1.1//EN" "http://www.w3.org/Graphics/SVG/1.1/DTD/svg11.dtd" [
	<!ENTITY ns_flows "http://ns.adobe.com/Flows/1.0/">
	<!ENTITY ns_extend "http://ns.adobe.com/Extensibility/1.0/">
	<!ENTITY ns_ai "http://ns.adobe.com/AdobeIllustrator/10.0/">
	<!ENTITY ns_graphs "http://ns.adobe.com/Graphs/1.0/">
]>
<svg version="1.1" id="Layer_1" xmlns:x="&ns_extend;" xmlns:i="&ns_ai;" xmlns:graph="&ns_graphs;"
	 xmlns="http://www.w3.org/2000/svg" xmlns:xlink="http://www.w3.org/1999/xlink" xmlns:a="http://ns.adobe.com/AdobeSVGViewerExtensions/3.0/"
	 x="0px" y="0px" width="612px" height="265px" viewBox="0 0 612 265" enable-background="new 0 0 612 265" xml:space="preserve">
<g>
	<g>
		<path fill="#9D7F1B" d="M169.082,22.965h-13.496v55.532h56.224V67.91h-42.728V22.965z M280.075,30.484
			c-3.531-2.916-7.707-5.181-12.546-6.788c-4.819-1.612-10.033-2.421-15.604-2.421c-5.576,0-10.777,0.809-15.612,2.421
			c-4.828,1.607-9.009,3.872-12.542,6.788c-3.169,2.609-5.555,5.61-7.169,9.015c-1.608,3.394-2.417,7.119-2.417,11.156
			c0,4.093,0.793,7.853,2.376,11.277c1.59,3.428,3.961,6.445,7.136,9.05c3.475,2.916,7.62,5.165,12.421,6.747
			c4.809,1.591,10.052,2.382,15.727,2.382c5.726,0,10.982-0.791,15.76-2.382c4.782-1.582,8.939-3.831,12.47-6.747
			c6.385-5.317,9.594-12.099,9.594-20.327C289.668,42.525,286.46,35.802,280.075,30.484z M274.088,58.329
			c-1.125,2.3-2.721,4.269-4.792,5.903c-2.071,1.637-4.58,2.905-7.518,3.794c-2.94,0.901-6.243,1.349-9.934,1.349
			c-3.681,0-6.978-0.447-9.886-1.349c-2.922-0.889-5.413-2.157-7.486-3.794c-2.074-1.635-3.659-3.604-4.756-5.903
			c-1.098-2.305-1.647-4.858-1.647-7.674c0-2.756,0.556-5.28,1.687-7.554c1.122-2.274,2.721-4.229,4.792-5.867
			c2.076-1.637,4.576-2.914,7.518-3.836c2.938-0.919,6.23-1.378,9.857-1.378s6.915,0.459,9.855,1.378
			c2.938,0.922,5.446,2.199,7.518,3.836c2.07,1.639,3.666,3.593,4.792,5.867c1.128,2.273,1.688,4.798,1.688,7.554
			C275.776,53.471,275.216,56.024,274.088,58.329z M362.679,30.753c-2.916-2.477-6.439-4.399-10.583-5.755
			c-4.147-1.353-8.792-2.033-13.96-2.033h-37.277v55.532h39.129c4.235,0,8.24-0.609,11.995-1.836
			c3.761-1.231,7.043-2.967,9.854-5.221c6.603-5.216,9.897-11.915,9.897-20.098c0-4.243-0.782-8.108-2.341-11.614
			C367.831,36.223,365.603,33.235,362.679,30.753z M354.103,60.745c-1.75,2.215-3.962,3.96-6.643,5.246
			c-2.688,1.283-5.49,1.919-8.404,1.919h-24.694V33.552h24.623c2.71,0,5.2,0.438,7.474,1.308c2.274,0.875,4.237,2.095,5.869,3.663
			c1.638,1.562,2.917,3.43,3.834,5.583c0.919,2.155,1.383,4.491,1.383,7.011C357.544,54.61,356.393,57.82,354.103,60.745z
			 M437.692,43.296h-40.104V23.045H384.09v55.452h13.499V54.645h40.104v23.853H451.2V23.045h-13.508V43.296z M505.895,22.965H489.24
			l-29.524,55.532h13.644l6.373-11.961h35.589l6.36,11.961h13.659L505.895,22.965z M485.258,55.949l12.194-22.784l12.186,22.784
			H485.258z"/>
		<g>
			<rect x="16.825" y="144.945" fill-rule="evenodd" clip-rule="evenodd" fill="#6D6E71" width="86.282" height="13.781"/>
			<rect x="16.825" y="22.965" fill-rule="evenodd" clip-rule="evenodd" fill="#6D6E71" width="86.282" height="13.776"/>
			<rect x="16.825" y="53.517" fill-rule="evenodd" clip-rule="evenodd" fill="#6D6E71" width="86.282" height="13.804"/>
			<rect x="16.825" y="84.114" fill-rule="evenodd" clip-rule="evenodd" fill="#6D6E71" width="86.282" height="13.625"/>
			<rect x="16.825" y="114.515" fill-rule="evenodd" clip-rule="evenodd" fill="#6D6E71" width="86.282" height="13.813"/>
		</g>
	</g>
	<path d="M154.518,217.85h10.689v25.147h2.781V217.85h10.685v-2.545h-24.155V217.85z M193.392,222.249
		c-1.809,0-3.432,0.355-4.867,1.06c-1.434,0.706-2.643,1.744-3.635,3.117v-11.121h-2.561v27.692h2.629v-11.568
		c0-1.985,0.759-3.613,2.254-4.876c1.5-1.257,3.409-1.883,5.735-1.883c2.054,0,3.509,0.5,4.365,1.514
		c0.845,1.011,1.269,2.808,1.269,5.388v11.426h2.643v-13.142c0-2.611-0.638-4.527-1.905-5.754
		C198.055,222.861,196.073,222.249,193.392,222.249z M217.148,221.948c-3.243,0-5.866,1.009-7.859,3.009
		c-1.998,2.003-2.994,4.628-2.994,7.875c0,3.271,0.996,5.905,2.988,7.907c1.986,1.994,4.609,2.985,7.865,2.985
		c2.555,0,4.732-0.646,6.533-1.942c1.804-1.305,2.974-3.054,3.511-5.267H224.2c-0.503,1.466-1.366,2.601-2.6,3.402
		c-1.229,0.81-2.711,1.206-4.452,1.206c-2.391,0-4.278-0.665-5.664-2.008c-1.392-1.344-2.155-3.247-2.3-5.704h18.776v-0.614
		c0-3.288-0.981-5.918-2.953-7.887C223.028,222.937,220.411,221.948,217.148,221.948z M209.257,231.184
		c0.171-2.024,0.978-3.644,2.412-4.865c1.439-1.225,3.267-1.841,5.479-1.841c2.194,0,3.999,0.616,5.424,1.841
		c1.421,1.222,2.212,2.841,2.353,4.865H209.257z M245.621,218.447h2.64v-3.143h-2.64V218.447z M245.621,242.997h2.64v-20.314h-2.64
		V242.997z M265.901,222.249c-1.81,0-3.436,0.355-4.867,1.06c-1.44,0.706-2.648,1.744-3.635,3.117v-3.743h-2.567v20.314h2.637
		v-11.568c0-1.985,0.752-3.613,2.252-4.876c1.496-1.257,3.411-1.883,5.731-1.883c2.06,0,3.51,0.5,4.363,1.514
		c0.852,1.011,1.271,2.808,1.271,5.388v11.426h2.64v-13.142c0-2.611-0.635-4.527-1.899-5.754
		C270.562,222.861,268.587,222.249,265.901,222.249z M291.106,222.249c-1.815,0-3.44,0.355-4.87,1.06
		c-1.43,0.706-2.648,1.744-3.63,3.117v-3.743h-2.571v20.314h2.643v-11.568c0-1.985,0.745-3.613,2.251-4.876
		c1.494-1.257,3.404-1.883,5.729-1.883c2.057,0,3.506,0.5,4.362,1.514c0.845,1.011,1.278,2.808,1.278,5.388v11.426h2.632v-13.142
		c0-2.611-0.633-4.527-1.895-5.754C295.763,222.861,293.792,222.249,291.106,222.249z M314.87,221.948
		c-3.246,0-5.869,1.009-7.865,3.009c-1.997,2.003-2.997,4.628-2.997,7.875c0,3.271,0.993,5.905,2.985,7.907
		c1.992,1.994,4.612,2.985,7.877,2.985c2.543,0,4.716-0.646,6.529-1.942c1.793-1.305,2.967-3.054,3.508-5.267h-2.998
		c-0.5,1.466-1.362,2.601-2.591,3.402c-1.233,0.81-2.72,1.206-4.448,1.206c-2.396,0-4.294-0.665-5.681-2.008
		c-1.385-1.344-2.154-3.247-2.299-5.704h18.782v-0.614c0-3.288-0.985-5.918-2.959-7.887
		C320.744,222.937,318.126,221.948,314.87,221.948z M306.965,231.184c0.177-2.024,0.981-3.644,2.417-4.865
		c1.435-1.225,3.26-1.841,5.488-1.841c2.178,0,3.987,0.616,5.411,1.841c1.426,1.222,2.203,2.841,2.356,4.865H306.965z
		 M339.566,221.948c-1.32,0-2.521,0.362-3.604,1.089c-1.078,0.723-1.917,1.729-2.499,3.013v-3.367h-2.678v20.314h2.678v-13.142
		c0.563-1.726,1.375-3.012,2.433-3.867c1.063-0.855,2.389-1.286,3.973-1.286c0.358,0,0.733,0.034,1.119,0.097
		c0.388,0.062,0.805,0.162,1.256,0.3v-2.584c-0.463-0.19-0.917-0.327-1.366-0.424C340.444,221.994,340.002,221.948,339.566,221.948z
		 M371.397,239.618c-1.313,1.009-2.897,1.506-4.745,1.506c-2.477,0-4.459-0.747-5.934-2.242c-1.481-1.501-2.206-3.517-2.206-6.05
		c0-2.497,0.738-4.512,2.225-6.055c1.485-1.532,3.425-2.3,5.828-2.3c1.795,0,3.308,0.422,4.525,1.268
		c1.227,0.839,2.082,2.055,2.57,3.636h2.776c-0.36-2.207-1.434-3.998-3.237-5.366c-1.809-1.378-3.989-2.066-6.548-2.066
		c-3.247,0-5.867,1.009-7.866,3.009c-1.999,2.003-2.996,4.628-2.996,7.875c0,3.246,0.997,5.871,2.996,7.887
		c1.999,2.008,4.619,3.006,7.866,3.006c2.65,0,4.897-0.748,6.749-2.259c1.855-1.511,2.933-3.464,3.215-5.862h-2.719
		C373.553,237.272,372.719,238.611,371.397,239.618z M381.407,218.447h2.642v-3.143h-2.642V218.447z M381.407,242.997h2.642v-20.314
		h-2.642V242.997z M399.479,221.948c-1.325,0-2.526,0.362-3.6,1.089c-1.089,0.723-1.921,1.729-2.506,3.013v-3.367h-2.671v20.314
		h2.671v-13.142c0.566-1.726,1.373-3.012,2.435-3.867c1.068-0.855,2.392-1.286,3.967-1.286c0.364,0,0.749,0.034,1.125,0.097
		c0.395,0.062,0.813,0.162,1.262,0.3v-2.584c-0.464-0.19-0.913-0.327-1.357-0.424C400.356,221.994,399.919,221.948,399.479,221.948z
		 M420.03,239.618c-1.321,1.009-2.898,1.506-4.744,1.506c-2.487,0-4.461-0.747-5.936-2.242c-1.475-1.501-2.205-3.517-2.205-6.05
		c0-2.497,0.738-4.512,2.219-6.055c1.495-1.532,3.43-2.3,5.826-2.3c1.795,0,3.314,0.422,4.539,1.268
		c1.222,0.839,2.075,2.055,2.561,3.636h2.779c-0.358-2.207-1.436-3.998-3.242-5.366c-1.802-1.378-3.984-2.066-6.541-2.066
		c-3.246,0-5.862,1.009-7.866,3.009c-1.994,2.003-2.989,4.628-2.989,7.875c0,3.246,0.995,5.871,2.989,7.887
		c2.004,2.008,4.62,3.006,7.866,3.006c2.646,0,4.895-0.748,6.752-2.259c1.853-1.511,2.93-3.464,3.205-5.862h-2.715
		C422.189,237.272,421.353,238.611,420.03,239.618z M430.044,242.997h2.637v-27.692h-2.637V242.997z M459.684,232.798
		c0-3.288-0.99-5.918-2.958-7.887c-1.98-1.975-4.59-2.963-7.85-2.963c-3.246,0-5.869,1.009-7.864,3.009
		c-2.003,2.003-2.998,4.628-2.998,7.875c0,3.271,0.995,5.905,2.989,7.907c1.992,1.994,4.617,2.985,7.873,2.985
		c2.55,0,4.725-0.646,6.534-1.942c1.802-1.305,2.971-3.054,3.508-5.267h-2.999c-0.495,1.466-1.357,2.601-2.596,3.402
		c-1.229,0.81-2.705,1.206-4.447,1.206c-2.389,0-4.287-0.665-5.67-2.008c-1.387-1.344-2.152-3.247-2.302-5.704h18.779V232.798z
		 M440.978,231.184c0.179-2.024,0.979-3.644,2.419-4.865c1.426-1.225,3.26-1.841,5.479-1.841c2.188,0,3.994,0.616,5.422,1.841
		c1.419,1.222,2.203,2.841,2.354,4.865H440.978z"/>
	<path fill="#6D6E71" d="M192.178,138.773l-27.866-36.476l-0.167-0.218h-8.565v56.626h6.087v-49.945l30.512,39.17l30.52-39.267
		v50.042h6.075V102.08h-8.486L192.178,138.773z M266.173,102.08l-29.959,56.626h6.987l7.751-14.424h38.459l7.599,14.424h6.984
		l-29.799-56.626H266.173z M254.063,138.36l16.146-30.354l16.087,30.354H254.063z M336.907,135.924h29.279
		c-1.639,5.888-4.668,10.44-8.994,13.57c-4.512,3.251-10.404,4.899-17.514,4.899c-4.165,0-7.987-0.597-11.364-1.772
		c-3.368-1.169-6.284-2.832-8.678-4.95c-2.382-2.106-4.248-4.653-5.539-7.579s-1.942-6.227-1.942-9.811
		c0-7.148,2.822-13.142,8.392-17.812c2.439-2.036,5.321-3.629,8.561-4.728c3.256-1.094,6.814-1.648,10.571-1.648
		c4.656,0,8.846,0.759,12.44,2.259c3.6,1.492,7.118,4.005,10.479,7.465l0.312,0.316l5.53-3.496l-0.438-0.479
		c-3.62-4.033-7.781-7.045-12.395-8.964c-4.597-1.908-9.957-2.88-15.93-2.88c-4.587,0-8.966,0.706-12.997,2.103
		c-4.03,1.398-7.593,3.363-10.597,5.846c-6.9,5.707-10.395,13.13-10.395,22.056c0,9.074,3.464,16.548,10.317,22.202
		c2.948,2.487,6.502,4.432,10.532,5.774c4.025,1.344,8.446,2.024,13.139,2.024c5.982,0,11.42-1.063,16.173-3.154
		c4.762-2.096,8.756-5.133,11.864-9.026c1.779-2.237,3.137-4.821,4.042-7.683c0.903-2.838,1.492-6.16,1.754-9.869l0.041-0.59
		h-36.646V135.924z M439.994,151.931l-45.766-49.677l-0.156-0.174h-8.001v56.626h6.084v-49.85l45.913,49.678l0.156,0.172h7.85
		V102.08h-6.08V151.931z M516.617,138.911c0,10.415-7.745,15.482-23.681,15.482c-16.049,0-23.849-5.067-23.849-15.482V102.08h-6.085
		v38.743c0,2.85,0.711,5.5,2.111,7.87c1.395,2.366,3.424,4.441,6.039,6.163c2.594,1.715,5.757,3.072,9.407,4.023
		c3.634,0.956,7.793,1.439,12.376,1.439c4.516,0,8.664-0.483,12.33-1.439c3.663-0.951,6.817-2.295,9.36-3.982
		c2.565-1.701,4.569-3.771,5.963-6.162c1.398-2.407,2.104-5.067,2.104-7.912V102.08h-6.077V138.911z M586.715,128.738
		c-2.8-1.194-6.153-1.953-9.986-2.268c-3.744-0.3-8.107-0.563-12.981-0.763c-3.494-0.158-6.596-0.418-9.195-0.764
		c-2.57-0.351-4.744-0.885-6.468-1.573c-1.658-0.681-2.931-1.565-3.756-2.629c-0.818-1.053-1.229-2.421-1.229-4.077
		c0-3.184,1.669-5.609,5.122-7.416c3.498-1.837,8.767-2.779,15.658-2.779c4.23,0,8.247,0.434,11.954,1.298
		c3.693,0.851,7.351,2.249,10.869,4.164l0.374,0.201l4.251-4.619l-0.527-0.355c-3.315-2.225-7.275-3.877-11.775-4.911
		c-4.464-1.027-9.666-1.545-15.464-1.545c-8.793,0-15.625,1.458-20.263,4.337c-4.726,2.926-7.123,7.053-7.123,12.238
		c0,2.868,0.706,5.287,2.104,7.19c1.376,1.896,3.535,3.388,6.373,4.44c2.594,0.986,5.726,1.633,9.286,1.917
		c3.519,0.286,7.647,0.524,12.288,0.733c3.744,0.146,7.075,0.447,9.877,0.876c2.774,0.422,5.099,1.036,6.915,1.836
		c1.771,0.777,3.102,1.779,3.957,2.997c0.846,1.205,1.281,2.762,1.281,4.628c0,3.811-1.905,6.743-5.814,8.96
		c-3.968,2.245-9.852,3.384-17.485,3.384c-4.838,0-9.451-0.63-13.703-1.856c-4.249-1.236-8.47-3.185-12.544-5.806l-0.449-0.284
		l-3.526,5.104l0.45,0.314c3.906,2.729,8.496,4.819,13.622,6.213c5.122,1.383,10.904,2.086,17.223,2.086
		c9.414,0,16.69-1.618,21.611-4.803c5.002-3.242,7.533-7.815,7.533-13.616C595.175,135.502,592.337,131.178,586.715,128.738z"/>
</g>
</svg>
