<?xml version="1.0" encoding="utf-8"?>
<!-- Generator: Adobe Illustrator 16.0.0, SVG Export Plug-In . SVG Version: 6.00 Build 0)  -->
<!DOCTYPE svg PUBLIC "-//W3C//DTD SVG 1.1//EN" "http://www.w3.org/Graphics/SVG/1.1/DTD/svg11.dtd">
<svg version="1.1" id="Layer_1" xmlns="http://www.w3.org/2000/svg" xmlns:xlink="http://www.w3.org/1999/xlink" x="0px" y="0px"
	 width="377.927px" height="50px" viewBox="0 0 377.927 50" enable-background="new 0 0 377.927 50" xml:space="preserve">
<g>
	<rect y="43.837" fill-rule="evenodd" clip-rule="evenodd" fill="#808285" width="30.012" height="4.796"/>
	<rect y="1.435" fill-rule="evenodd" clip-rule="evenodd" fill="#808285" width="30.012" height="4.789"/>
	<rect y="12.034" fill-rule="evenodd" clip-rule="evenodd" fill="#808285" width="30.012" height="4.792"/>
	<rect y="22.666" fill-rule="evenodd" clip-rule="evenodd" fill="#808285" width="30.012" height="4.732"/>
	<rect y="33.232" fill-rule="evenodd" clip-rule="evenodd" fill="#808285" width="30.012" height="4.798"/>
	<polygon fill="#9D7F1B" points="60.022,48.64 60.022,1.435 71.496,1.435 71.496,39.643 107.812,39.643 107.812,48.64 	"/>
	<path fill="#9D7F1B" d="M173.996,24.966c0,7-2.723,12.765-8.158,17.28c-2.995,2.481-6.527,4.392-10.594,5.741
		C151.18,49.33,146.715,50,141.848,50c-4.827,0-9.279-0.67-13.367-2.013c-4.086-1.35-7.602-3.26-10.562-5.741
		c-2.701-2.214-4.716-4.781-6.062-7.689c-1.343-2.911-2.023-6.105-2.023-9.59c0-3.428,0.689-6.589,2.054-9.484
		c1.366-2.893,3.399-5.446,6.101-7.657c2.997-2.482,6.547-4.405,10.656-5.768C132.754,0.683,137.171,0,141.912,0
		c4.736,0,9.16,0.683,13.271,2.058c4.109,1.363,7.659,3.286,10.654,5.768C171.273,12.341,173.996,18.057,173.996,24.966
		 M162.188,24.966c0-2.341-0.479-4.485-1.432-6.422c-0.955-1.93-2.312-3.592-4.074-4.982c-1.765-1.398-3.893-2.481-6.389-3.26
		c-2.504-0.788-5.299-1.18-8.381-1.18c-3.088,0-5.879,0.393-8.381,1.18c-2.492,0.779-4.624,1.862-6.383,3.26
		c-1.762,1.39-3.123,3.053-4.076,4.982c-0.961,1.937-1.436,4.081-1.436,6.422c0,2.398,0.466,4.567,1.402,6.528
		c0.934,1.948,2.277,3.62,4.039,5.02c1.76,1.394,3.883,2.464,6.357,3.231c2.476,0.752,5.283,1.131,8.412,1.131
		c3.125,0,5.941-0.379,8.445-1.131c2.496-0.768,4.624-1.838,6.389-3.231c1.762-1.399,3.119-3.071,4.074-5.02
		C161.709,29.533,162.188,27.364,162.188,24.966"/>
	<path fill="#9D7F1B" d="M226.067,3.16c3.518,1.151,6.521,2.784,9.001,4.892c2.475,2.104,4.375,4.655,5.7,7.63
		c1.328,2.978,1.993,6.268,1.993,9.87c0,6.955-2.806,12.655-8.411,17.088c-2.387,1.915-5.188,3.39-8.382,4.433
		c-3.196,1.047-6.602,1.567-10.201,1.567h-33.252V1.435h31.682C218.586,1.435,222.553,2.012,226.067,3.16 M222.118,38.006
		c2.288-1.093,4.164-2.578,5.65-4.462c1.948-2.482,2.932-5.209,2.932-8.183c0-2.14-0.391-4.125-1.178-5.958
		c-0.784-1.833-1.866-3.416-3.257-4.75c-1.396-1.331-3.061-2.362-4.994-3.107c-1.934-0.743-4.046-1.12-6.356-1.12h-20.926v29.216
		h20.993C217.46,39.643,219.843,39.093,222.118,38.006"/>
	<polygon fill="#9D7F1B" points="295.897,48.64 295.897,28.358 261.799,28.358 261.799,48.64 250.327,48.64 250.327,1.497 
		261.799,1.497 261.799,18.708 295.897,18.708 295.897,1.497 307.373,1.497 307.373,48.64 	"/>
	<path fill="#9D7F1B" d="M366.319,48.64l-5.42-10.179h-30.243L325.24,48.64h-11.604l25.103-47.205h14.147l25.04,47.205H366.319z
		 M345.719,10.105l-10.367,19.367h20.727L345.719,10.105z"/>
</g>
</svg>
